# xmcd
#
# Track frame offsets:
#	150
#	12122
#	24961
#	35358
#	47648
#	58430
#	69799
#	82079
#	93403
#	105198
#	118775
#	130372
#	143061
#	154481
#	164258
#	176562
#	186764
#	200099
#	210071
#
# Disc length: 2954 seconds
#
# Revision: 1
# Processed by: cddbd v1.5.2PL0 Copyright (c) Steve Scherf et al.
# Submitted via: audiograbber 1.83.01
#
DISCID=fd0b8813
DTITLE=Charlie Rich - CHARLIE RICH - Groove Recordings
DYEAR=1900
DGENRE=Country
TTITLE0=Big boss man
TTITLE1=River, stay 'way from my door
TTITLE2=Big Jack
TTITLE3=Mountain dew
TTITLE4=She loved everybody but me
TTITLE5=Let me go my merry way
TTITLE6=Ol' man river
TTITLE7=The grass is always greener
TTITLE8=The ways of a woman in love
TTITLE9=Why, oh why
TTITLE10=Rosanna
TTITLE11=Are you still my baby
TTITLE12=It just goes to show (You never know about love)
TTITLE13=If I knew then what I know now
TTITLE14=Too many teardrops
TTITLE15=I don't see me in your eyes anymore
TTITLE16=The big buildup
TTITLE17=It's all over now
TTITLE18=I'm right behind you
EXTD=
EXTT0=
EXTT1=
EXTT2=
EXTT3=
EXTT4=
EXTT5=
EXTT6=
EXTT7=
EXTT8=
EXTT9=
EXTT10=
EXTT11=
EXTT12=
EXTT13=
EXTT14=
EXTT15=
EXTT16=
EXTT17=
EXTT18=
PLAYORDER=
